<?xml version="1.0" encoding="utf-8"?>
<!-- Generator: Adobe Illustrator 25.2.3, SVG Export Plug-In . SVG Version: 6.00 Build 0)  -->
<svg version="1.1" id="Capa_1" xmlns="http://www.w3.org/2000/svg" xmlns:xlink="http://www.w3.org/1999/xlink" x="0px" y="0px"
	 viewBox="0 0 512 512" style="enable-background:new 0 0 512 512;" xml:space="preserve">
<style type="text/css">
	.st0{fill:#FAFAFA;}
</style>
<path class="st0" d="M181,181h-60v60h60c16.5,0,30-13.5,30-30S197.5,181,181,181z"/>
<path class="st0" d="M181,271h-60v60h60c16.5,0,30-13.5,30-30S197.5,271,181,271z"/>
<path class="st0" d="M346,241c-19.6,0-36.2,12.5-42.4,30h84.9C382.2,253.5,365.6,241,346,241z"/>
<path class="st0" d="M436,0H75C33.6,0,0,33.6,0,75v362c0,41.4,33.6,75,75,75h361c41.4,0,76-33.6,76-75V75C512,33.6,477.4,0,436,0z
	 M286,151h120v30H286V151z M241,301c0,33.1-26.9,60-60,60H91V151h90c33.1,0,60,26.9,60,60c0,18-8.1,34-20.7,45
	C232.9,267,241,283,241,301z M421,301H303.6c6.2,17.5,22.9,30,42.4,30c16,0,31-8.6,39-22.5l26,15C397.6,346.6,372.7,361,346,361
	c-41.4,0-75-33.6-75-75s33.6-75,75-75s75,33.6,75,75V301z"/>
</svg>
