<?xml version="1.0" encoding="utf-8"?>
<!-- Generator: Adobe Illustrator 25.2.3, SVG Export Plug-In . SVG Version: 6.00 Build 0)  -->
<svg version="1.1" id="Capa_1" xmlns="http://www.w3.org/2000/svg" xmlns:xlink="http://www.w3.org/1999/xlink" x="0px" y="0px"
	 viewBox="0 0 512 512" style="enable-background:new 0 0 512 512;" xml:space="preserve">
<style type="text/css">
	.st0{fill:#FFFFFF;}
</style>
<g>
	<path class="st0" d="M472,56H40C22.3,56,8,70.3,8,88v272c0,17.7,14.3,32,32,32h164.9l-10.7,32H168c-4.4,0-8,3.6-8,8v16H88
		c-4.4,0-8,3.6-8,8s3.6,8,8,8h352c4.4,0,8-3.6,8-8s-3.6-8-8-8h-88v-16c0-4.4-3.6-8-8-8h-26.2l-10.7-32H472c17.7,0,32-14.3,32-32V88
		C504,70.3,489.7,56,472,56z M336,440v8H176v-8H336z M211.1,424l10.7-32h68.5l10.7,32H211.1z M488,360c0,8.8-7.2,16-16,16H40
		c-8.8,0-16-7.2-16-16v-16h464V360z M143.7,256l-3,72h-9.3l-3-72H143.7z M129.4,240l5.3-32h2.4l5.3,32H129.4z M136,192
		c-8.7,0-16-11-16-24c0-8.2,8.4-20.1,16-28.6c6.9,7.6,16,19.8,16,28.6C152,181,144.7,192,136,192z M223.1,176l0.9,1.9v6.1h-32v-6.1
		l0.9-1.9H223.1z M200.9,160l7.1-14.1l7.1,14.1H200.9z M224,200v127c0,0.3,0,0.7,0.1,1h-32.1c0-0.3,0.1-0.7,0.1-1V200H224z M296,168
		h24v16h-8c-4.4,0-8,3.6-8,8s3.6,8,8,8h8v16h-24c-4.4,0-8,3.6-8,8s3.6,8,8,8h24v16h-8c-4.4,0-8,3.6-8,8s3.6,8,8,8h8v16h-24
		c-4.4,0-8,3.6-8,8s3.6,8,8,8h24v32h-56V136h56v16h-24c-4.4,0-8,3.6-8,8S291.6,168,296,168z M392,264v63c0,0.3,0,0.7,0.1,1h-32.1
		c0-0.3,0.1-0.7,0.1-1v-63H392z M360,248v-6.1l16-32l16,32v6.1H360z M488,328h-80.1c0-0.3,0.1-0.7,0.1-1v-87c0-1.2-0.3-2.5-0.8-3.6
		l-24-48c-2-4-6.8-5.6-10.7-3.6c-1.5,0.8-2.8,2-3.6,3.6l-24,48c-0.6,1.1-0.8,2.3-0.8,3.6v87c0,0.3,0,0.7,0.1,1H336V128
		c0-4.4-3.6-8-8-8h-72c-4.4,0-8,3.6-8,8v200h-8.1c0-0.3,0.1-0.7,0.1-1V176c0-1.2-0.3-2.5-0.8-3.6l-24-48c-2-4-6.8-5.6-10.7-3.6
		c-1.5,0.8-2.8,2-3.6,3.6l-24,48c-0.6,1.1-0.8,2.3-0.8,3.6v151c0,0.3,0,0.7,0.1,1h-19.4l3.3-79.7c0-0.2,0-0.4,0-0.6v-0.2
		c0-0.3-0.1-0.6-0.1-0.8v0l-7.4-44.4c9.3-7,15.5-19.7,15.5-34.3c0-20.6-23.8-43.3-26.6-45.9c-3.1-2.8-7.8-2.8-10.9,0
		c-2.7,2.5-26.6,25.3-26.6,45.9c0,14.5,6.2,27.3,15.5,34.3l-7.4,44.4v0c0,0.3-0.1,0.6-0.1,0.8v0.2c0,0.2,0,0.4,0,0.6l3.3,79.7H24V88
		c0-8.8,7.2-16,16-16h432c8.8,0,16,7.2,16,16V328z"/>
	<path class="st0" d="M96,352H48c-4.4,0-8,3.6-8,8s3.6,8,8,8h48c4.4,0,8-3.6,8-8S100.4,352,96,352z"/>
	<path class="st0" d="M128,352h-8c-4.4,0-8,3.6-8,8s3.6,8,8,8h8c4.4,0,8-3.6,8-8S132.4,352,128,352z"/>
	<path class="st0" d="M208,208c-4.4,0-8,3.6-8,8v88c0,4.4,3.6,8,8,8s8-3.6,8-8v-88C216,211.6,212.4,208,208,208z"/>
	<path class="st0" d="M376,272c-4.4,0-8,3.6-8,8v24c0,4.4,3.6,8,8,8s8-3.6,8-8v-24C384,275.6,380.4,272,376,272z"/>
	<path class="st0" d="M48,104h64c4.4,0,8-3.6,8-8s-3.6-8-8-8H48c-4.4,0-8,3.6-8,8S43.6,104,48,104z"/>
	<path class="st0" d="M48,128h16c4.4,0,8-3.6,8-8s-3.6-8-8-8H48c-4.4,0-8,3.6-8,8S43.6,128,48,128z"/>
	<path class="st0" d="M432,312h32c4.4,0,8-3.6,8-8s-3.6-8-8-8h-32c-4.4,0-8,3.6-8,8S427.6,312,432,312z"/>
	<path class="st0" d="M456,288h8c4.4,0,8-3.6,8-8s-3.6-8-8-8h-8c-4.4,0-8,3.6-8,8S451.6,288,456,288z"/>
</g>
</svg>
