<?xml version="1.0" encoding="utf-8"?>
<!-- Generator: Adobe Illustrator 25.2.3, SVG Export Plug-In . SVG Version: 6.00 Build 0)  -->
<svg version="1.1" id="Capa_1" xmlns="http://www.w3.org/2000/svg" xmlns:xlink="http://www.w3.org/1999/xlink" x="0px" y="0px"
	 viewBox="0 0 512 512" style="enable-background:new 0 0 512 512;" xml:space="preserve">
<style type="text/css">
	.st0{fill:#FFFFFF;}
</style>
<g>
	<path class="st0" d="M400,192c0-79.4-64.6-144-144-144s-144,64.6-144,144c0,51.5,27.4,99,72,124.7V376h-16c-4.4,0-8,3.6-8,8v32
		c0,4.4,3.6,8,8,8h16v32c0,26.5,21.5,48,48,48h48c26.5,0,48-21.5,48-48v-32h16c4.4,0,8-3.6,8-8v-32c0-4.4-3.6-8-8-8h-16v-59.3
		C372.6,291,400,243.5,400,192z M312,456c0,17.7-14.3,32-32,32h-48c-17.7,0-32-14.3-32-32v-8h40c4.4,0,8-3.6,8-8s-3.6-8-8-8h-40v-8
		h112V456z M336,392v16H176v-16H336z M271.1,152l0.9,1.9v6.1h-32v-6.1l0.9-1.9H271.1z M248.9,136l7.1-14.1l7.1,14.1H248.9z M272,176
		v168h-32V176H272z M288,360v16h-64v-16H288z M316.2,305c-2.6,1.4-4.2,4.1-4.2,7.1v64h-8v-24c0-4.4-3.6-8-8-8h-8V152
		c0-1.2-0.3-2.5-0.8-3.6l-24-48c-2-4-6.8-5.6-10.7-3.6c-1.5,0.8-2.8,2-3.6,3.6l-24,48c-0.6,1.1-0.8,2.3-0.8,3.6v192h-8
		c-4.4,0-8,3.6-8,8v24h-8v-64c0-3-1.6-5.7-4.2-7.1c-62.4-33.3-86-110.8-52.7-173.2s110.8-86,173.2-52.7s86,110.8,52.7,173.2
		C357,274.7,338.6,293,316.2,305z"/>
	<path class="st0" d="M264,448h8c4.4,0,8-3.6,8-8s-3.6-8-8-8h-8c-4.4,0-8,3.6-8,8S259.6,448,264,448z"/>
	<path class="st0" d="M256,40c4.4,0,8-3.6,8-8V16c0-4.4-3.6-8-8-8s-8,3.6-8,8v16C248,36.4,251.6,40,256,40z"/>
	<path class="st0" d="M96,184H72c-4.4,0-8,3.6-8,8s3.6,8,8,8h24c4.4,0,8-3.6,8-8S100.4,184,96,184z"/>
	<path class="st0" d="M440,184h-24c-4.4,0-8,3.6-8,8s3.6,8,8,8h24c4.4,0,8-3.6,8-8S444.4,184,440,184z"/>
	<path class="st0" d="M137.2,299.5l-17,17c-3.1,3.1-3.1,8.2,0,11.3c3.1,3.1,8.2,3.1,11.3,0l17-17c3.1-3.1,3.1-8.2,0-11.3
		C145.4,296.4,140.3,296.4,137.2,299.5L137.2,299.5z"/>
	<path class="st0" d="M369.1,86.9c2.1,0,4.2-0.8,5.7-2.3l17-17c3.1-3.1,3.1-8.2,0-11.3c-3.1-3.1-8.2-3.1-11.3,0l-17,17
		c-3.1,3.1-3.1,8.2,0,11.3C365,86,367,86.9,369.1,86.9z"/>
	<path class="st0" d="M137.2,84.5c3.1,3.1,8.2,3.1,11.3,0c3.1-3.1,3.1-8.2,0-11.3l0,0l-17-17c-3.1-3.1-8.2-3.1-11.3,0
		s-3.1,8.2,0,11.3l0,0L137.2,84.5z"/>
	<path class="st0" d="M374.8,299.5c-3.1-3.1-8.2-3.1-11.3,0c-3.1,3.1-3.1,8.2,0,11.3l17,17c3.1,3.1,8.2,3.1,11.3,0s3.1-8.2,0-11.3
		l0,0L374.8,299.5z"/>
	<path class="st0" d="M256,184c-4.4,0-8,3.6-8,8v104c0,4.4,3.6,8,8,8s8-3.6,8-8V192C264,187.6,260.4,184,256,184z"/>
	<path class="st0" d="M256,312c-4.4,0-8,3.6-8,8v8c0,4.4,3.6,8,8,8s8-3.6,8-8v-8C264,315.6,260.4,312,256,312z"/>
</g>
</svg>
