<?xml version="1.0" encoding="utf-8"?>
<!-- Generator: Adobe Illustrator 25.2.3, SVG Export Plug-In . SVG Version: 6.00 Build 0)  -->
<svg version="1.1" id="Capa_1" xmlns="http://www.w3.org/2000/svg" xmlns:xlink="http://www.w3.org/1999/xlink" x="0px" y="0px"
	 viewBox="0 0 512 512" style="enable-background:new 0 0 512 512;" xml:space="preserve">
<style type="text/css">
	.st0{fill:#FFFFFF;}
</style>
<g>
	<path class="st0" d="M472,56H40C22.3,56,8,70.3,8,88v272c0,17.7,14.3,32,32,32h164.9l-10.7,32H168c-4.4,0-8,3.6-8,8v16H88
		c-4.4,0-8,3.6-8,8s3.6,8,8,8h352c4.4,0,8-3.6,8-8s-3.6-8-8-8h-88v-16c0-4.4-3.6-8-8-8h-26.2l-10.7-32H472c17.7,0,32-14.3,32-32V88
		C504,70.3,489.7,56,472,56z M336,440v8H176v-8H336z M211.1,424l10.7-32h68.5l10.7,32H211.1z M488,360c0,8.8-7.2,16-16,16H40
		c-8.8,0-16-7.2-16-16v-16h464V360z M488,328H24V88c0-8.8,7.2-16,16-16h432c8.8,0,16,7.2,16,16V328z"/>
	<path class="st0" d="M96,352H48c-4.4,0-8,3.6-8,8s3.6,8,8,8h48c4.4,0,8-3.6,8-8S100.4,352,96,352z"/>
	<path class="st0" d="M128,352h-8c-4.4,0-8,3.6-8,8s3.6,8,8,8h8c4.4,0,8-3.6,8-8S132.4,352,128,352z"/>
	<path class="st0" d="M40,320h128c4.4,0,8-3.6,8-8V136c0-4.4-3.6-8-8-8H40c-4.4,0-8,3.6-8,8v176C32,316.4,35.6,320,40,320z M48,144
		h112v160H48V144z"/>
	<path class="st0" d="M192,160h128c4.4,0,8-3.6,8-8V88c0-4.4-3.6-8-8-8H192c-4.4,0-8,3.6-8,8v64C184,156.4,187.6,160,192,160z
		 M200,96h112v48H200V96z"/>
	<path class="st0" d="M192,224h64c4.4,0,8-3.6,8-8v-40c0-4.4-3.6-8-8-8h-64c-4.4,0-8,3.6-8,8v40C184,220.4,187.6,224,192,224z
		 M200,184h48v24h-48V184z"/>
	<path class="st0" d="M40,120h31c4.4,0,8-3.6,8-8V88c0-4.4-3.6-8-8-8H40c-4.4,0-8,3.6-8,8v24C32,116.4,35.6,120,40,120z M48,96h15v8
		H48V96z"/>
	<path class="st0" d="M96,96h72c4.4,0,8-3.6,8-8s-3.6-8-8-8H96c-4.4,0-8,3.6-8,8S91.6,96,96,96z"/>
	<path class="st0" d="M96,120h24c4.4,0,8-3.6,8-8s-3.6-8-8-8H96c-4.4,0-8,3.6-8,8S91.6,120,96,120z"/>
	<path class="st0" d="M144,104c-4.4,0-8,3.6-8,8s3.6,8,8,8h8c4.4,0,8-3.6,8-8s-3.6-8-8-8H144z"/>
	<path class="st0" d="M192,248h128c4.4,0,8-3.6,8-8s-3.6-8-8-8H192c-4.4,0-8,3.6-8,8S187.6,248,192,248z"/>
	<path class="st0" d="M192,296h128c4.4,0,8-3.6,8-8s-3.6-8-8-8H192c-4.4,0-8,3.6-8,8S187.6,296,192,296z"/>
	<path class="st0" d="M192,272h96c4.4,0,8-3.6,8-8s-3.6-8-8-8h-96c-4.4,0-8,3.6-8,8S187.6,272,192,272z"/>
	<path class="st0" d="M320,256h-8c-4.4,0-8,3.6-8,8s3.6,8,8,8h8c4.4,0,8-3.6,8-8S324.4,256,320,256z"/>
	<path class="st0" d="M192,320h96c4.4,0,8-3.6,8-8s-3.6-8-8-8h-96c-4.4,0-8,3.6-8,8S187.6,320,192,320z"/>
	<path class="st0" d="M320,304h-8c-4.4,0-8,3.6-8,8s3.6,8,8,8h8c4.4,0,8-3.6,8-8S324.4,304,320,304z"/>
	<path class="st0" d="M320,168h-40c-4.4,0-8,3.6-8,8v40c0,4.4,3.6,8,8,8h40c4.4,0,8-3.6,8-8v-40C328,171.6,324.4,168,320,168z
		 M312,208h-24v-24h24V208z"/>
	<path class="st0" d="M344,200h128c4.4,0,8-3.6,8-8V88c0-4.4-3.6-8-8-8H344c-4.4,0-8,3.6-8,8v104C336,196.4,339.6,200,344,200z
		 M352,96h112v88H352V96z"/>
	<path class="st0" d="M344,320h128c4.4,0,8-3.6,8-8v-24c0-4.4-3.6-8-8-8H344c-4.4,0-8,3.6-8,8v24C336,316.4,339.6,320,344,320z
		 M352,296h112v8H352V296z"/>
	<path class="st0" d="M344,224h128c4.4,0,8-3.6,8-8s-3.6-8-8-8H344c-4.4,0-8,3.6-8,8S339.6,224,344,224z"/>
	<path class="st0" d="M344,248h128c4.4,0,8-3.6,8-8s-3.6-8-8-8H344c-4.4,0-8,3.6-8,8S339.6,248,344,248z"/>
	<path class="st0" d="M344,272h96c4.4,0,8-3.6,8-8s-3.6-8-8-8h-96c-4.4,0-8,3.6-8,8S339.6,272,344,272z"/>
	<path class="st0" d="M472,256h-8c-4.4,0-8,3.6-8,8s3.6,8,8,8h8c4.4,0,8-3.6,8-8S476.4,256,472,256z"/>
</g>
</svg>
