<?xml version="1.0" encoding="utf-8"?>
<!-- Generator: Adobe Illustrator 25.2.3, SVG Export Plug-In . SVG Version: 6.00 Build 0)  -->
<svg version="1.1" id="Capa_1" xmlns="http://www.w3.org/2000/svg" xmlns:xlink="http://www.w3.org/1999/xlink" x="0px" y="0px"
	 viewBox="0 0 512 512" style="enable-background:new 0 0 512 512;" xml:space="preserve">
<style type="text/css">
	.st0{fill:#FFFFFF;}
</style>
<g>
	<path class="st0" d="M336,144c-4.4,0-8,3.6-8,8v104c0,4.4,3.6,8,8,8s8-3.6,8-8V152C344,147.6,340.4,144,336,144z"/>
	<path class="st0" d="M336,272c-4.4,0-8,3.6-8,8v8c0,4.4,3.6,8,8,8s8-3.6,8-8v-8C344,275.6,340.4,272,336,272z"/>
	<path class="st0" d="M496,24H16c-4.4,0-8,3.6-8,8v352c0,4.4,3.6,8,8,8h288v64c0,17.7,14.3,32,32,32s32-14.3,32-32v-64h48
		c2.1,0,4.2-0.8,5.7-2.3l80-80c1.5-1.5,2.3-3.5,2.3-5.7V32C504,27.6,500.4,24,496,24z M352,456c0,8.8-7.2,16-16,16s-16-7.2-16-16
		v-16h32V456z M352,424h-32v-8h32V424z M352,400h-32V136h32V400z M352,120h-32v-6.1l0.9-1.9h30.1l0.9,1.9V120z M328.9,96l7.1-14.1
		l7.1,14.1H328.9z M424,364.7V312h52.7L424,364.7z M488,296h-72c-4.4,0-8,3.6-8,8v72h-40V112c0-1.2-0.3-2.5-0.8-3.6l-24-48
		c-2-4-6.8-5.6-10.7-3.6c-1.5,0.8-2.8,2-3.6,3.6l-24,48c-0.6,1.1-0.8,2.3-0.8,3.6v264H24V40h464V296z"/>
	<path class="st0" d="M48,72h72c4.4,0,8-3.6,8-8s-3.6-8-8-8H48c-4.4,0-8,3.6-8,8S43.6,72,48,72z"/>
	<path class="st0" d="M80,88c0-4.4-3.6-8-8-8H48c-4.4,0-8,3.6-8,8s3.6,8,8,8h24C76.4,96,80,92.4,80,88z"/>
	<path class="st0" d="M288,88c-57.4,0.1-103.9,46.6-104,104c0,4.4,3.6,8,8,8s8-3.6,8-8c0.1-48.6,39.4-87.9,88-88c4.4,0,8-3.6,8-8
		S292.4,88,288,88z"/>
	<path class="st0" d="M240,184c-4.4,0-8,3.6-8,8c-0.1,44.2-35.8,79.9-80,80c-4.4,0-8,3.6-8,8s3.6,8,8,8c53-0.1,95.9-43,96-96
		C248,187.6,244.4,184,240,184z"/>
	<path class="st0" d="M456,192c0,4.4,3.6,8,8,8s8-3.6,8-8c-0.1-44.2-35.8-79.9-80-80c-4.4,0-8,3.6-8,8s3.6,8,8,8
		C427.3,128,456,156.7,456,192z"/>
	<path class="st0" d="M168,216c0-26.5-21.5-48-48-48s-48,21.5-48,48s21.5,48,48,48C146.5,264,168,242.5,168,216z M120,248
		c-17.7,0-32-14.3-32-32s14.3-32,32-32s32,14.3,32,32C152,233.7,137.7,248,120,248z"/>
	<path class="st0" d="M264,288c-13.3,0-24,10.7-24,24s10.7,24,24,24c13.3,0,24-10.7,24-24C288,298.8,277.2,288,264,288z M264,320
		c-4.4,0-8-3.6-8-8s3.6-8,8-8s8,3.6,8,8C272,316.4,268.4,320,264,320z"/>
	<path class="st0" d="M432,112c13.3,0,24-10.7,24-24s-10.7-24-24-24s-24,10.7-24,24C408,101.2,418.8,112,432,112z M432,80
		c4.4,0,8,3.6,8,8s-3.6,8-8,8s-8-3.6-8-8C424,83.6,427.6,80,432,80z"/>
</g>
</svg>
